<svg width="212" height="40" viewBox="0 0 212 40" fill="none" xmlns="http://www.w3.org/2000/svg">
<g filter="url(#filter0_d)">
<path d="M172.551 10.0947V22.0127H174.818V25.124H172.551V29H168.754V25.124H160.514V21.8677C161.244 21.0503 162 20.1582 162.782 19.1914C163.564 18.2158 164.32 17.2139 165.049 16.1855C165.779 15.1572 166.456 14.1245 167.08 13.0874C167.712 12.0415 168.249 11.0439 168.688 10.0947H172.551ZM164.245 22.0127H168.754V15.4077C168.446 15.979 168.112 16.5591 167.752 17.1479C167.392 17.728 167.014 18.3037 166.618 18.875C166.223 19.4375 165.823 19.9868 165.418 20.5229C165.014 21.0503 164.623 21.5469 164.245 22.0127ZM179.143 29.3296C178.457 29.3296 177.886 29.1187 177.429 28.6968C176.972 28.2749 176.743 27.7563 176.743 27.1411C176.743 26.5083 176.976 25.9897 177.442 25.5854C177.917 25.1812 178.505 24.979 179.208 24.979C179.92 24.979 180.5 25.1855 180.949 25.5986C181.406 26.0029 181.634 26.5171 181.634 27.1411C181.634 27.7827 181.401 28.3101 180.936 28.7231C180.479 29.1274 179.881 29.3296 179.143 29.3296Z" fill="#C4C4C4"/>
<path d="M172.551 10.0947H172.651V9.99473H172.551V10.0947ZM172.551 22.0127H172.451V22.1127H172.551V22.0127ZM174.818 22.0127H174.918V21.9127H174.818V22.0127ZM174.818 25.124V25.224H174.918V25.124H174.818ZM172.551 25.124V25.024H172.451V25.124H172.551ZM172.551 29V29.1H172.651V29H172.551ZM168.754 29H168.654V29.1H168.754V29ZM168.754 25.124H168.854V25.024H168.754V25.124ZM160.514 25.124H160.414V25.224H160.514V25.124ZM160.514 21.8677L160.44 21.8011L160.414 21.8295V21.8677H160.514ZM162.782 19.1914L162.859 19.2543L162.86 19.254L162.782 19.1914ZM167.08 13.0874L166.994 13.0356L166.994 13.0358L167.08 13.0874ZM168.688 10.0947V9.99473H168.624L168.597 10.0527L168.688 10.0947ZM164.245 22.0127L164.167 21.9497L164.035 22.1127H164.245V22.0127ZM168.754 22.0127V22.1127H168.854V22.0127H168.754ZM168.754 15.4077H168.854L168.666 15.3603L168.754 15.4077ZM167.752 17.1479L167.837 17.2007L167.837 17.2001L167.752 17.1479ZM166.618 18.875L166.7 18.9325L166.7 18.9319L166.618 18.875ZM165.418 20.5229L165.498 20.5838L165.498 20.5832L165.418 20.5229ZM172.451 10.0947V22.0127H172.651V10.0947H172.451ZM172.551 22.1127H174.818V21.9127H172.551V22.1127ZM174.718 22.0127V25.124H174.918V22.0127H174.718ZM174.818 25.024H172.551V25.224H174.818V25.024ZM172.451 25.124V29H172.651V25.124H172.451ZM172.551 28.9H168.754V29.1H172.551V28.9ZM168.854 29V25.124H168.654V29H168.854ZM168.754 25.024H160.514V25.224H168.754V25.024ZM160.614 25.124V21.8677H160.414V25.124H160.614ZM160.589 21.9343C161.319 21.1155 162.076 20.2222 162.859 19.2543L162.704 19.1285C161.923 20.0942 161.168 20.9851 160.44 21.8011L160.589 21.9343ZM162.86 19.254C163.643 18.2768 164.4 17.2733 165.131 16.2434L164.968 16.1277C164.239 17.1544 163.485 18.1548 162.704 19.1289L162.86 19.254ZM165.131 16.2434C165.862 15.2131 166.54 14.1783 167.165 13.139L166.994 13.0358C166.371 14.0707 165.696 15.1013 164.968 16.1277L165.131 16.2434ZM167.165 13.1392C167.8 12.0906 168.338 11.0898 168.779 10.1367L168.597 10.0527C168.16 10.9981 167.625 11.9924 166.994 13.0356L167.165 13.1392ZM168.688 10.1947H172.551V9.99473H168.688V10.1947ZM164.245 22.1127H168.754V21.9127H164.245V22.1127ZM168.854 22.0127V15.4077H168.654V22.0127H168.854ZM168.666 15.3603C168.359 15.9299 168.026 16.5084 167.667 17.0958L167.837 17.2001C168.199 16.6098 168.533 16.0281 168.842 15.4551L168.666 15.3603ZM167.667 17.0952C167.308 17.6738 166.931 18.2481 166.536 18.8181L166.7 18.9319C167.097 18.3593 167.476 17.7822 167.837 17.2007L167.667 17.0952ZM166.536 18.8175C166.141 19.3791 165.742 19.9275 165.339 20.4627L165.498 20.5832C165.903 20.0461 166.304 19.4959 166.7 18.9325L166.536 18.8175ZM165.339 20.4621C164.935 20.9888 164.545 21.4847 164.167 21.9497L164.323 22.0757C164.701 21.6091 165.093 21.1118 165.498 20.5838L165.339 20.4621ZM177.442 25.5854L177.377 25.5093L177.376 25.5099L177.442 25.5854ZM180.949 25.5986L180.881 25.6722L180.882 25.6735L180.949 25.5986ZM180.936 28.7231L181.002 28.798L181.002 28.798L180.936 28.7231ZM179.143 29.2296C178.479 29.2296 177.933 29.0263 177.497 28.6233L177.361 28.7703C177.838 29.211 178.435 29.4296 179.143 29.4296V29.2296ZM177.497 28.6233C177.06 28.2201 176.843 27.7281 176.843 27.1411H176.643C176.643 27.7846 176.884 28.3297 177.361 28.7703L177.497 28.6233ZM176.843 27.1411C176.843 26.5364 177.064 26.0457 177.507 25.661L177.376 25.5099C176.888 25.9338 176.643 26.4802 176.643 27.1411H176.843ZM177.507 25.6616C177.961 25.2747 178.526 25.079 179.208 25.079V24.879C178.485 24.879 177.872 25.0876 177.377 25.5093L177.507 25.6616ZM179.208 25.079C179.9 25.079 180.454 25.2789 180.881 25.6722L181.016 25.5251C180.547 25.0922 179.941 24.879 179.208 24.879V25.079ZM180.882 25.6735C181.317 26.0584 181.534 26.545 181.534 27.1411H181.734C181.734 26.4892 181.494 25.9475 181.015 25.5237L180.882 25.6735ZM181.534 27.1411C181.534 27.7551 181.313 28.2549 180.869 28.6483L181.002 28.798C181.49 28.3652 181.734 27.8103 181.734 27.1411H181.534ZM180.869 28.6482C180.434 29.0331 179.862 29.2296 179.143 29.2296V29.4296C179.9 29.4296 180.523 29.2217 181.002 28.798L180.869 28.6482Z" fill="black"/>
<path d="M18.5508 30.3774C17.2731 30.9959 15.6048 31.3052 13.5459 31.3052C10.8604 31.3052 8.74854 30.5158 7.21045 28.937C5.67236 27.3582 4.90332 25.2546 4.90332 22.626C4.90332 19.8265 5.76595 17.556 7.49121 15.8145C9.22461 14.0729 11.4707 13.2021 14.2295 13.2021C15.9385 13.2021 17.3789 13.4178 18.5508 13.8491V17.6455C17.3789 16.9456 16.0443 16.5957 14.5469 16.5957C12.903 16.5957 11.5765 17.1125 10.5674 18.146C9.55827 19.1795 9.05371 20.5793 9.05371 22.3452C9.05371 24.0379 9.52979 25.3888 10.4819 26.3979C11.4341 27.3989 12.7158 27.8994 14.3271 27.8994C15.8652 27.8994 17.2731 27.5251 18.5508 26.7764V30.3774ZM27.1812 31.3052C25.0978 31.3052 23.458 30.7233 22.2617 29.5596C21.0736 28.3877 20.4795 26.8008 20.4795 24.7988C20.4795 22.7318 21.098 21.1164 22.335 19.9526C23.5719 18.7808 25.2443 18.1948 27.3521 18.1948C29.4272 18.1948 31.0549 18.7808 32.2349 19.9526C33.4149 21.1164 34.0049 22.6585 34.0049 24.5791C34.0049 26.6543 33.3945 28.2941 32.1738 29.4985C30.9613 30.703 29.297 31.3052 27.1812 31.3052ZM27.2788 21.1489C26.3674 21.1489 25.6593 21.4622 25.1548 22.0889C24.6502 22.7155 24.3979 23.6025 24.3979 24.75C24.3979 27.1507 25.3664 28.3511 27.3032 28.3511C29.1506 28.3511 30.0742 27.1182 30.0742 24.6523C30.0742 22.3167 29.1424 21.1489 27.2788 21.1489ZM56.356 31H52.5107V23.8711C52.5107 22.0563 51.8434 21.1489 50.5088 21.1489C49.874 21.1489 49.3573 21.4215 48.9585 21.9668C48.5597 22.512 48.3604 23.1916 48.3604 24.0054V31H44.5029V23.7979C44.5029 22.0319 43.8478 21.1489 42.5376 21.1489C41.8784 21.1489 41.3494 21.4093 40.9507 21.9302C40.5601 22.451 40.3647 23.159 40.3647 24.0542V31H36.5073V18.5H40.3647V20.4531H40.4136C40.8123 19.7858 41.3698 19.2446 42.0859 18.8296C42.8102 18.4064 43.5996 18.1948 44.4541 18.1948C46.2201 18.1948 47.4285 18.972 48.0796 20.5264C49.0317 18.972 50.4315 18.1948 52.2788 18.1948C54.9969 18.1948 56.356 19.8713 56.356 23.2241V31ZM79.2563 31H75.4111V23.8711C75.4111 22.0563 74.7438 21.1489 73.4092 21.1489C72.7744 21.1489 72.2576 21.4215 71.8589 21.9668C71.4601 22.512 71.2607 23.1916 71.2607 24.0054V31H67.4033V23.7979C67.4033 22.0319 66.7482 21.1489 65.438 21.1489C64.7788 21.1489 64.2498 21.4093 63.8511 21.9302C63.4604 22.451 63.2651 23.159 63.2651 24.0542V31H59.4077V18.5H63.2651V20.4531H63.314C63.7127 19.7858 64.2702 19.2446 64.9863 18.8296C65.7106 18.4064 66.5 18.1948 67.3545 18.1948C69.1204 18.1948 70.3289 18.972 70.98 20.5264C71.9321 18.972 73.3319 18.1948 75.1792 18.1948C77.8973 18.1948 79.2563 19.8713 79.2563 23.2241V31ZM93.5386 25.8486H85.3843C85.5145 27.6634 86.6579 28.5708 88.8145 28.5708C90.1898 28.5708 91.3983 28.2453 92.4399 27.5942V30.3774C91.2843 30.9959 89.7829 31.3052 87.9355 31.3052C85.9173 31.3052 84.3507 30.7477 83.2358 29.6328C82.1209 28.5098 81.5635 26.9473 81.5635 24.9453C81.5635 22.8701 82.1657 21.2262 83.3701 20.0137C84.5745 18.8011 86.0557 18.1948 87.8135 18.1948C89.6364 18.1948 91.0443 18.736 92.0371 19.8184C93.0381 20.9007 93.5386 22.3696 93.5386 24.2251V25.8486ZM89.9619 23.4805C89.9619 21.6901 89.2376 20.7949 87.7891 20.7949C87.1706 20.7949 86.6335 21.0513 86.1777 21.564C85.7301 22.0767 85.4575 22.7155 85.3599 23.4805H89.9619ZM103.988 21.979C103.524 21.7267 102.983 21.6006 102.364 21.6006C101.526 21.6006 100.871 21.9098 100.399 22.5283C99.9269 23.1387 99.6909 23.9728 99.6909 25.0308V31H95.8335V18.5H99.6909V20.8193H99.7397C100.35 19.1266 101.449 18.2803 103.036 18.2803C103.443 18.2803 103.76 18.3291 103.988 18.4268V21.979ZM115.169 30.5483C114.299 31.0529 113.041 31.3052 111.397 31.3052C109.477 31.3052 107.923 30.7233 106.734 29.5596C105.546 28.3958 104.952 26.8944 104.952 25.0552C104.952 22.9312 105.587 21.2588 106.856 20.0381C108.134 18.8092 109.839 18.1948 111.971 18.1948C113.444 18.1948 114.51 18.3901 115.169 18.7808V22.0522C114.364 21.45 113.465 21.1489 112.472 21.1489C111.365 21.1489 110.486 21.4744 109.835 22.1255C109.192 22.7684 108.871 23.6595 108.871 24.7988C108.871 25.9056 109.18 26.7764 109.798 27.4111C110.417 28.0378 111.267 28.3511 112.35 28.3511C113.31 28.3511 114.25 28.05 115.169 27.4478V30.5483ZM119.662 16.5225C119.011 16.5225 118.478 16.3312 118.062 15.9487C117.647 15.5581 117.44 15.082 117.44 14.5205C117.44 13.9427 117.647 13.4707 118.062 13.1045C118.478 12.7383 119.011 12.5552 119.662 12.5552C120.321 12.5552 120.854 12.7383 121.261 13.1045C121.676 13.4707 121.883 13.9427 121.883 14.5205C121.883 15.1064 121.676 15.5866 121.261 15.9609C120.854 16.3353 120.321 16.5225 119.662 16.5225ZM121.566 31H117.708V18.5H121.566V31ZM135.213 31H131.563V29.2056H131.515C130.676 30.6053 129.435 31.3052 127.792 31.3052C126.579 31.3052 125.623 30.9634 124.923 30.2798C124.231 29.5881 123.885 28.6685 123.885 27.521C123.885 25.0959 125.322 23.6961 128.194 23.3218L131.588 22.8701C131.588 21.5029 130.847 20.8193 129.366 20.8193C127.877 20.8193 126.461 21.2629 125.118 22.1499V19.2446C125.655 18.9679 126.388 18.7238 127.315 18.5122C128.251 18.3006 129.102 18.1948 129.867 18.1948C133.431 18.1948 135.213 19.973 135.213 23.5293V31ZM131.588 25.9219V25.0796L129.317 25.3726C128.064 25.5353 127.438 26.1009 127.438 27.0693C127.438 27.5088 127.588 27.8709 127.889 28.1558C128.198 28.4325 128.613 28.5708 129.134 28.5708C129.859 28.5708 130.449 28.3226 130.904 27.8262C131.36 27.3216 131.588 26.6868 131.588 25.9219ZM142.123 31H138.265V12.4941H142.123V31ZM156.6 25.8486H148.446C148.576 27.6634 149.719 28.5708 151.876 28.5708C153.251 28.5708 154.46 28.2453 155.501 27.5942V30.3774C154.346 30.9959 152.844 31.3052 150.997 31.3052C148.979 31.3052 147.412 30.7477 146.297 29.6328C145.182 28.5098 144.625 26.9473 144.625 24.9453C144.625 22.8701 145.227 21.2262 146.432 20.0137C147.636 18.8011 149.117 18.1948 150.875 18.1948C152.698 18.1948 154.106 18.736 155.099 19.8184C156.1 20.9007 156.6 22.3696 156.6 24.2251V25.8486ZM153.023 23.4805C153.023 21.6901 152.299 20.7949 150.851 20.7949C150.232 20.7949 149.695 21.0513 149.239 21.564C148.792 22.0767 148.519 22.7155 148.421 23.4805H153.023Z" fill="#F9B126" style="mix-blend-mode:lighten"/>
<path d="M18.5508 30.3774C17.2731 30.9959 15.6048 31.3052 13.5459 31.3052C10.8604 31.3052 8.74854 30.5158 7.21045 28.937C5.67236 27.3582 4.90332 25.2546 4.90332 22.626C4.90332 19.8265 5.76595 17.556 7.49121 15.8145C9.22461 14.0729 11.4707 13.2021 14.2295 13.2021C15.9385 13.2021 17.3789 13.4178 18.5508 13.8491V17.6455C17.3789 16.9456 16.0443 16.5957 14.5469 16.5957C12.903 16.5957 11.5765 17.1125 10.5674 18.146C9.55827 19.1795 9.05371 20.5793 9.05371 22.3452C9.05371 24.0379 9.52979 25.3888 10.4819 26.3979C11.4341 27.3989 12.7158 27.8994 14.3271 27.8994C15.8652 27.8994 17.2731 27.5251 18.5508 26.7764V30.3774ZM27.1812 31.3052C25.0978 31.3052 23.458 30.7233 22.2617 29.5596C21.0736 28.3877 20.4795 26.8008 20.4795 24.7988C20.4795 22.7318 21.098 21.1164 22.335 19.9526C23.5719 18.7808 25.2443 18.1948 27.3521 18.1948C29.4272 18.1948 31.0549 18.7808 32.2349 19.9526C33.4149 21.1164 34.0049 22.6585 34.0049 24.5791C34.0049 26.6543 33.3945 28.2941 32.1738 29.4985C30.9613 30.703 29.297 31.3052 27.1812 31.3052ZM27.2788 21.1489C26.3674 21.1489 25.6593 21.4622 25.1548 22.0889C24.6502 22.7155 24.3979 23.6025 24.3979 24.75C24.3979 27.1507 25.3664 28.3511 27.3032 28.3511C29.1506 28.3511 30.0742 27.1182 30.0742 24.6523C30.0742 22.3167 29.1424 21.1489 27.2788 21.1489ZM56.356 31H52.5107V23.8711C52.5107 22.0563 51.8434 21.1489 50.5088 21.1489C49.874 21.1489 49.3573 21.4215 48.9585 21.9668C48.5597 22.512 48.3604 23.1916 48.3604 24.0054V31H44.5029V23.7979C44.5029 22.0319 43.8478 21.1489 42.5376 21.1489C41.8784 21.1489 41.3494 21.4093 40.9507 21.9302C40.5601 22.451 40.3647 23.159 40.3647 24.0542V31H36.5073V18.5H40.3647V20.4531H40.4136C40.8123 19.7858 41.3698 19.2446 42.0859 18.8296C42.8102 18.4064 43.5996 18.1948 44.4541 18.1948C46.2201 18.1948 47.4285 18.972 48.0796 20.5264C49.0317 18.972 50.4315 18.1948 52.2788 18.1948C54.9969 18.1948 56.356 19.8713 56.356 23.2241V31ZM79.2563 31H75.4111V23.8711C75.4111 22.0563 74.7438 21.1489 73.4092 21.1489C72.7744 21.1489 72.2576 21.4215 71.8589 21.9668C71.4601 22.512 71.2607 23.1916 71.2607 24.0054V31H67.4033V23.7979C67.4033 22.0319 66.7482 21.1489 65.438 21.1489C64.7788 21.1489 64.2498 21.4093 63.8511 21.9302C63.4604 22.451 63.2651 23.159 63.2651 24.0542V31H59.4077V18.5H63.2651V20.4531H63.314C63.7127 19.7858 64.2702 19.2446 64.9863 18.8296C65.7106 18.4064 66.5 18.1948 67.3545 18.1948C69.1204 18.1948 70.3289 18.972 70.98 20.5264C71.9321 18.972 73.3319 18.1948 75.1792 18.1948C77.8973 18.1948 79.2563 19.8713 79.2563 23.2241V31ZM93.5386 25.8486H85.3843C85.5145 27.6634 86.6579 28.5708 88.8145 28.5708C90.1898 28.5708 91.3983 28.2453 92.4399 27.5942V30.3774C91.2843 30.9959 89.7829 31.3052 87.9355 31.3052C85.9173 31.3052 84.3507 30.7477 83.2358 29.6328C82.1209 28.5098 81.5635 26.9473 81.5635 24.9453C81.5635 22.8701 82.1657 21.2262 83.3701 20.0137C84.5745 18.8011 86.0557 18.1948 87.8135 18.1948C89.6364 18.1948 91.0443 18.736 92.0371 19.8184C93.0381 20.9007 93.5386 22.3696 93.5386 24.2251V25.8486ZM89.9619 23.4805C89.9619 21.6901 89.2376 20.7949 87.7891 20.7949C87.1706 20.7949 86.6335 21.0513 86.1777 21.564C85.7301 22.0767 85.4575 22.7155 85.3599 23.4805H89.9619ZM103.988 21.979C103.524 21.7267 102.983 21.6006 102.364 21.6006C101.526 21.6006 100.871 21.9098 100.399 22.5283C99.9269 23.1387 99.6909 23.9728 99.6909 25.0308V31H95.8335V18.5H99.6909V20.8193H99.7397C100.35 19.1266 101.449 18.2803 103.036 18.2803C103.443 18.2803 103.76 18.3291 103.988 18.4268V21.979ZM115.169 30.5483C114.299 31.0529 113.041 31.3052 111.397 31.3052C109.477 31.3052 107.923 30.7233 106.734 29.5596C105.546 28.3958 104.952 26.8944 104.952 25.0552C104.952 22.9312 105.587 21.2588 106.856 20.0381C108.134 18.8092 109.839 18.1948 111.971 18.1948C113.444 18.1948 114.51 18.3901 115.169 18.7808V22.0522C114.364 21.45 113.465 21.1489 112.472 21.1489C111.365 21.1489 110.486 21.4744 109.835 22.1255C109.192 22.7684 108.871 23.6595 108.871 24.7988C108.871 25.9056 109.18 26.7764 109.798 27.4111C110.417 28.0378 111.267 28.3511 112.35 28.3511C113.31 28.3511 114.25 28.05 115.169 27.4478V30.5483ZM119.662 16.5225C119.011 16.5225 118.478 16.3312 118.062 15.9487C117.647 15.5581 117.44 15.082 117.44 14.5205C117.44 13.9427 117.647 13.4707 118.062 13.1045C118.478 12.7383 119.011 12.5552 119.662 12.5552C120.321 12.5552 120.854 12.7383 121.261 13.1045C121.676 13.4707 121.883 13.9427 121.883 14.5205C121.883 15.1064 121.676 15.5866 121.261 15.9609C120.854 16.3353 120.321 16.5225 119.662 16.5225ZM121.566 31H117.708V18.5H121.566V31ZM135.213 31H131.563V29.2056H131.515C130.676 30.6053 129.435 31.3052 127.792 31.3052C126.579 31.3052 125.623 30.9634 124.923 30.2798C124.231 29.5881 123.885 28.6685 123.885 27.521C123.885 25.0959 125.322 23.6961 128.194 23.3218L131.588 22.8701C131.588 21.5029 130.847 20.8193 129.366 20.8193C127.877 20.8193 126.461 21.2629 125.118 22.1499V19.2446C125.655 18.9679 126.388 18.7238 127.315 18.5122C128.251 18.3006 129.102 18.1948 129.867 18.1948C133.431 18.1948 135.213 19.973 135.213 23.5293V31ZM131.588 25.9219V25.0796L129.317 25.3726C128.064 25.5353 127.438 26.1009 127.438 27.0693C127.438 27.5088 127.588 27.8709 127.889 28.1558C128.198 28.4325 128.613 28.5708 129.134 28.5708C129.859 28.5708 130.449 28.3226 130.904 27.8262C131.36 27.3216 131.588 26.6868 131.588 25.9219ZM142.123 31H138.265V12.4941H142.123V31ZM156.6 25.8486H148.446C148.576 27.6634 149.719 28.5708 151.876 28.5708C153.251 28.5708 154.46 28.2453 155.501 27.5942V30.3774C154.346 30.9959 152.844 31.3052 150.997 31.3052C148.979 31.3052 147.412 30.7477 146.297 29.6328C145.182 28.5098 144.625 26.9473 144.625 24.9453C144.625 22.8701 145.227 21.2262 146.432 20.0137C147.636 18.8011 149.117 18.1948 150.875 18.1948C152.698 18.1948 154.106 18.736 155.099 19.8184C156.1 20.9007 156.6 22.3696 156.6 24.2251V25.8486ZM153.023 23.4805C153.023 21.6901 152.299 20.7949 150.851 20.7949C150.232 20.7949 149.695 21.0513 149.239 21.564C148.792 22.0767 148.519 22.7155 148.421 23.4805H153.023Z" fill="url(#paint0_linear)"/>
<path fill-rule="evenodd" clip-rule="evenodd" d="M185.492 15.8135C185.248 16.6608 185.121 17.5565 185.131 18.4815C185.141 19.368 185.274 20.2242 185.514 21.034C185.704 21.6725 185.959 22.2821 186.273 22.855C187.154 24.4614 188.493 25.7787 190.113 26.6327C190.674 26.928 191.268 27.168 191.888 27.3453C192.735 27.5875 193.631 27.7127 194.557 27.7025C195.494 27.6922 196.396 27.5461 197.244 27.2829C197.836 27.0993 198.403 26.8586 198.937 26.5673C200.501 25.7138 201.79 24.4252 202.643 22.8606C202.957 22.2854 203.212 21.6729 203.4 21.031C203.637 20.2225 203.769 19.3674 203.778 18.4815C203.789 17.5553 203.663 16.6591 203.421 15.8118C203.245 15.1943 203.006 14.6028 202.712 14.0445C201.86 12.424 200.544 11.0836 198.939 10.2017C198.888 10.2542 198.861 10.285 198.861 10.285L197.016 9.46532C197.016 9.46532 197.018 9.44674 197.021 9.41257C196.238 9.18882 195.412 9.06487 194.557 9.05549C193.632 9.04532 192.737 9.17206 191.889 9.41659C191.892 9.44819 191.894 9.46532 191.894 9.46532L190.049 10.285C190.049 10.285 190.026 10.2562 189.982 10.2068C188.428 11.064 187.14 12.3517 186.283 13.9057C186.332 13.9495 186.361 13.9734 186.361 13.9734L185.541 15.8176C185.541 15.8176 185.524 15.8159 185.492 15.8135ZM194.557 13.9734C192.068 13.9734 190.049 15.9917 190.049 18.4815C190.049 20.9712 192.068 22.9895 194.557 22.9895C197.047 22.9895 199.066 20.9712 199.066 18.4815C199.066 15.9917 197.047 13.9734 194.557 13.9734Z" fill="#C4C4C4"/>
<path d="M206.033 20.7355C207.472 19.7225 207.435 17.2916 206.033 16.2274C205.278 15.6552 203.726 15.7808 203.421 15.8118C203.663 16.6591 203.789 17.5553 203.778 18.4815C203.769 19.3674 203.637 20.2225 203.4 21.031C204.428 20.9156 205.187 21.3307 206.033 20.7355Z" fill="#C4C4C4"/>
<path d="M201.115 28.1123C202.803 28.2926 204.369 26.7266 204.188 25.0387C204.09 24.1199 202.977 23.1367 202.643 22.8606C201.79 24.4252 200.501 25.7138 198.937 26.5673C199.213 26.9014 200.196 28.0142 201.115 28.1123Z" fill="#C4C4C4"/>
<path d="M192.303 29.9566C193.368 31.3591 195.718 31.3365 196.812 29.9566C197.38 29.2388 197.297 27.8042 197.244 27.2829C196.396 27.5461 195.494 27.6922 194.557 27.7025C193.631 27.7127 192.735 27.5875 191.888 27.3453C191.857 27.65 191.731 29.2024 192.303 29.9566Z" fill="#C4C4C4"/>
<path d="M184.722 25.0387C184.541 26.7266 186.101 28.2078 187.795 28.1123C188.721 28.0602 189.746 27.0346 190.113 26.6327C188.493 25.7787 187.154 24.4614 186.273 22.855C185.948 23.1233 184.82 24.1137 184.722 25.0387Z" fill="#C4C4C4"/>
<path d="M183.082 16.2274C181.659 17.2629 181.62 19.7552 183.082 20.7355C183.877 21.2683 184.565 20.9175 185.514 21.034C185.274 20.2242 185.141 19.368 185.131 18.4815C185.121 17.5565 185.248 16.6608 185.492 15.8135C185.212 15.7922 183.79 15.7128 183.082 16.2274Z" fill="#C4C4C4"/>
<path d="M188 8.85058C186.318 8.62204 184.698 10.2422 184.927 11.9243C185.039 12.7484 186 13.6546 186.283 13.9057C187.14 12.3517 188.428 11.064 189.982 10.2068C189.731 9.92374 188.824 8.96256 188 8.85058Z" fill="#C4C4C4"/>
<path d="M196.607 7.00637C195.595 5.66454 193.315 5.66454 192.303 7.00637C191.777 7.70525 191.866 9.13507 191.889 9.41659C192.737 9.17206 193.632 9.04532 194.557 9.05549C195.412 9.06487 196.238 9.18882 197.021 9.41257C197.045 9.12176 197.131 7.70199 196.607 7.00637Z" fill="#C4C4C4"/>
<path d="M204.188 11.9243C204.369 10.2363 202.807 8.71521 201.115 8.85058C200.232 8.92124 199.223 9.90613 198.939 10.2017C200.544 11.0836 201.86 12.424 202.712 14.0445C203.109 13.7071 204.096 12.7873 204.188 11.9243Z" fill="#C4C4C4"/>
<path d="M202.549 14.1783C202.549 14.1783 202.612 14.1302 202.712 14.0445M203.369 15.8176C203.369 15.8176 203.387 15.8153 203.421 15.8118M203.4 21.031C203.637 20.2225 203.769 19.3674 203.778 18.4815C203.789 17.5553 203.663 16.6591 203.421 15.8118M203.4 21.031C204.428 20.9156 205.187 21.3307 206.033 20.7355C207.472 19.7225 207.435 17.2916 206.033 16.2274C205.278 15.6552 203.726 15.7808 203.421 15.8118M203.4 21.031C203.212 21.6729 202.957 22.2854 202.643 22.8606M202.549 22.7846C202.549 22.7846 202.584 22.8114 202.643 22.8606M198.861 26.473C198.861 26.473 198.887 26.5078 198.937 26.5673M197.221 27.0878C197.221 27.0878 197.232 27.1599 197.244 27.2829M191.894 27.2927C191.894 27.2927 191.891 27.3112 191.888 27.3453M190.254 26.473C190.254 26.473 190.204 26.5341 190.113 26.6327M186.361 22.7846C186.361 22.7846 186.329 22.8094 186.273 22.855M185.514 21.034C185.274 20.2242 185.141 19.368 185.131 18.4815C185.121 17.5565 185.248 16.6608 185.492 15.8135M185.514 21.034C184.565 20.9175 183.877 21.2683 183.082 20.7355C181.62 19.7552 181.659 17.2629 183.082 16.2274C183.79 15.7128 185.212 15.7922 185.492 15.8135M185.514 21.034C185.704 21.6725 185.959 22.2821 186.273 22.855M185.492 15.8135C185.524 15.8159 185.541 15.8176 185.541 15.8176L186.361 13.9734C186.361 13.9734 186.332 13.9495 186.283 13.9057M185.492 15.8135C185.686 15.1442 185.952 14.5052 186.283 13.9057M186.273 22.855C187.154 24.4614 188.493 25.7787 190.113 26.6327M186.273 22.855C185.948 23.1233 184.82 24.1137 184.722 25.0387C184.541 26.7266 186.101 28.2078 187.795 28.1123C188.721 28.0602 189.746 27.0346 190.113 26.6327M190.113 26.6327C190.674 26.928 191.268 27.168 191.888 27.3453M191.888 27.3453C192.735 27.5875 193.631 27.7127 194.557 27.7025C195.494 27.6922 196.396 27.5461 197.244 27.2829M191.888 27.3453C191.857 27.65 191.731 29.2024 192.303 29.9566C193.368 31.3591 195.718 31.3365 196.812 29.9566C197.38 29.2388 197.297 27.8042 197.244 27.2829M197.244 27.2829C197.836 27.0993 198.403 26.8586 198.937 26.5673M198.937 26.5673C200.501 25.7138 201.79 24.4252 202.643 22.8606M198.937 26.5673C199.213 26.9014 200.196 28.0142 201.115 28.1123C202.803 28.2926 204.369 26.7266 204.188 25.0387C204.09 24.1199 202.977 23.1367 202.643 22.8606M203.421 15.8118C203.245 15.1943 203.006 14.6028 202.712 14.0445M202.712 14.0445C201.86 12.424 200.544 11.0836 198.939 10.2017M202.712 14.0445C203.109 13.7071 204.096 12.7873 204.188 11.9243C204.369 10.2363 202.807 8.71521 201.115 8.85058C200.232 8.92124 199.223 9.90613 198.939 10.2017M198.939 10.2017C198.888 10.2542 198.861 10.285 198.861 10.285L197.016 9.46532C197.016 9.46532 197.018 9.44674 197.021 9.41257M198.939 10.2017C198.337 9.87113 197.695 9.60496 197.021 9.41257M197.021 9.41257C196.238 9.18882 195.412 9.06487 194.557 9.05549C193.632 9.04532 192.737 9.17206 191.889 9.41659M197.021 9.41257C197.045 9.12176 197.131 7.70199 196.607 7.00637C195.595 5.66454 193.315 5.66454 192.303 7.00637C191.777 7.70525 191.866 9.13507 191.889 9.41659M191.889 9.41659C191.892 9.44819 191.894 9.46532 191.894 9.46532L190.049 10.285C190.049 10.285 190.026 10.2562 189.982 10.2068M191.889 9.41659C191.22 9.60969 190.581 9.87624 189.982 10.2068M189.982 10.2068C188.428 11.064 187.14 12.3517 186.283 13.9057M189.982 10.2068C189.731 9.92374 188.824 8.96256 188 8.85058C186.318 8.62204 184.698 10.2422 184.927 11.9243C185.039 12.7484 186 13.6546 186.283 13.9057M190.049 18.4815C190.049 15.9917 192.068 13.9734 194.557 13.9734C197.047 13.9734 199.066 15.9917 199.066 18.4815C199.066 20.9712 197.047 22.9895 194.557 22.9895C192.068 22.9895 190.049 20.9712 190.049 18.4815Z" stroke="black" stroke-width="0.1"/>
</g>
<defs>
<filter id="filter0_d" x="0" y="0" width="212" height="42" filterUnits="userSpaceOnUse" color-interpolation-filters="sRGB">
<feFlood flood-opacity="0" result="BackgroundImageFix"/>
<feColorMatrix in="SourceAlpha" type="matrix" values="0 0 0 0 0 0 0 0 0 0 0 0 0 0 0 0 0 0 127 0"/>
<feOffset dy="4"/>
<feGaussianBlur stdDeviation="2"/>
<feColorMatrix type="matrix" values="0 0 0 0 0 0 0 0 0 0 0 0 0 0 0 0 0 0 0.5 0"/>
<feBlend mode="normal" in2="BackgroundImageFix" result="effect1_dropShadow"/>
<feBlend mode="normal" in="SourceGraphic" in2="effect1_dropShadow" result="shape"/>
</filter>
<linearGradient id="paint0_linear" x1="160" y1="3.99999" x2="4" y2="4" gradientUnits="userSpaceOnUse">
<stop offset="0.9999" stop-color="#FFBE3F"/>
<stop offset="1" stop-color="white"/>
</linearGradient>
</defs>
</svg>
