<svg width="54" height="54" viewBox="0 0 54 54" fill="none" xmlns="http://www.w3.org/2000/svg">
<rect x="2" y="2" width="50" height="50" rx="4" stroke="#F9B126" stroke-opacity="0.8" stroke-width="3"/>
<path d="M17.5508 20.0947V32.0127H19.8184V35.124H17.5508V39H13.7539V35.124H5.51416V31.8677C6.24365 31.0503 6.99951 30.1582 7.78174 29.1914C8.56396 28.2158 9.31982 27.2139 10.0493 26.1855C10.7788 25.1572 11.4556 24.1245 12.0796 23.0874C12.7124 22.0415 13.2485 21.0439 13.688 20.0947H17.5508ZM9.24512 32.0127H13.7539V25.4077C13.4463 25.979 13.1123 26.5591 12.752 27.1479C12.3916 27.728 12.0137 28.3037 11.6182 28.875C11.2227 29.4375 10.8228 29.9868 10.4185 30.5229C10.0142 31.0503 9.62305 31.5469 9.24512 32.0127ZM24.1426 39.3296C23.457 39.3296 22.8857 39.1187 22.4287 38.6968C21.9717 38.2749 21.7432 37.7563 21.7432 37.1411C21.7432 36.5083 21.9761 35.9897 22.4419 35.5854C22.9165 35.1812 23.5054 34.979 24.2085 34.979C24.9204 34.979 25.5005 35.1855 25.9487 35.5986C26.4058 36.0029 26.6343 36.5171 26.6343 37.1411C26.6343 37.7827 26.4014 38.3101 25.9355 38.7231C25.4785 39.1274 24.8809 39.3296 24.1426 39.3296Z" fill="#C4C4C4"/>
<path d="M17.5508 20.0947H17.6508V19.9947H17.5508V20.0947ZM17.5508 32.0127H17.4508V32.1127H17.5508V32.0127ZM19.8184 32.0127H19.9184V31.9127H19.8184V32.0127ZM19.8184 35.124V35.224H19.9184V35.124H19.8184ZM17.5508 35.124V35.024H17.4508V35.124H17.5508ZM17.5508 39V39.1H17.6508V39H17.5508ZM13.7539 39H13.6539V39.1H13.7539V39ZM13.7539 35.124H13.8539V35.024H13.7539V35.124ZM5.51416 35.124H5.41416V35.224H5.51416V35.124ZM5.51416 31.8677L5.43955 31.8011L5.41416 31.8295V31.8677H5.51416ZM7.78174 29.1914L7.85948 29.2543L7.85976 29.254L7.78174 29.1914ZM12.0796 23.0874L11.994 23.0356L11.9939 23.0358L12.0796 23.0874ZM13.688 20.0947V19.9947H13.6241L13.5972 20.0527L13.688 20.0947ZM9.24512 32.0127L9.16746 31.9497L9.03521 32.1127H9.24512V32.0127ZM13.7539 32.0127V32.1127H13.8539V32.0127H13.7539ZM13.7539 25.4077H13.8539L13.6659 25.3603L13.7539 25.4077ZM12.752 27.1479L12.8369 27.2007L12.8372 27.2001L12.752 27.1479ZM11.6182 28.875L11.7 28.9325L11.7004 28.9319L11.6182 28.875ZM10.4185 30.5229L10.4978 30.5838L10.4983 30.5832L10.4185 30.5229ZM17.4508 20.0947V32.0127H17.6508V20.0947H17.4508ZM17.5508 32.1127H19.8184V31.9127H17.5508V32.1127ZM19.7184 32.0127V35.124H19.9184V32.0127H19.7184ZM19.8184 35.024H17.5508V35.224H19.8184V35.024ZM17.4508 35.124V39H17.6508V35.124H17.4508ZM17.5508 38.9H13.7539V39.1H17.5508V38.9ZM13.8539 39V35.124H13.6539V39H13.8539ZM13.7539 35.024H5.51416V35.224H13.7539V35.024ZM5.61416 35.124V31.8677H5.41416V35.124H5.61416ZM5.58877 31.9343C6.31947 31.1155 7.07637 30.2222 7.85948 29.2543L7.704 29.1285C6.92265 30.0942 6.16784 30.9851 5.43955 31.8011L5.58877 31.9343ZM7.85976 29.254C8.64322 28.2768 9.40026 27.2733 10.1309 26.2434L9.96776 26.1277C9.23939 27.1544 8.48471 28.1548 7.70372 29.1289L7.85976 29.254ZM10.1309 26.2434C10.8618 25.2131 11.5399 24.1783 12.1653 23.139L11.9939 23.0358C11.3712 24.0707 10.6959 25.1013 9.96776 26.1277L10.1309 26.2434ZM12.1651 23.1392C12.7996 22.0906 13.3375 21.0898 13.7787 20.1367L13.5972 20.0527C13.1596 20.9981 12.6252 21.9924 11.994 23.0356L12.1651 23.1392ZM13.688 20.1947H17.5508V19.9947H13.688V20.1947ZM9.24512 32.1127H13.7539V31.9127H9.24512V32.1127ZM13.8539 32.0127V25.4077H13.6539V32.0127H13.8539ZM13.6659 25.3603C13.3592 25.9299 13.0261 26.5084 12.6667 27.0958L12.8372 27.2001C13.1985 26.6098 13.5334 26.0281 13.842 25.4551L13.6659 25.3603ZM12.667 27.0952C12.3075 27.6738 11.9305 28.2481 11.5359 28.8181L11.7004 28.9319C12.0968 28.3593 12.4757 27.7822 12.8369 27.2007L12.667 27.0952ZM11.5364 28.8175C11.1415 29.3791 10.7422 29.9275 10.3386 30.4627L10.4983 30.5832C10.9033 30.0461 11.3038 29.4959 11.7 28.9325L11.5364 28.8175ZM10.3391 30.4621C9.9353 30.9888 9.54476 31.4847 9.16746 31.9497L9.32277 32.0757C9.70134 31.6091 10.093 31.1118 10.4978 30.5838L10.3391 30.4621ZM22.4419 35.5854L22.377 35.5093L22.3763 35.5099L22.4419 35.5854ZM25.9487 35.5986L25.8809 35.6722L25.8825 35.6735L25.9487 35.5986ZM25.9355 38.7231L26.0018 38.798L26.0019 38.798L25.9355 38.7231ZM24.1426 39.2296C23.4794 39.2296 22.9331 39.0263 22.4965 38.6233L22.3609 38.7703C22.8383 39.211 23.4347 39.4296 24.1426 39.4296V39.2296ZM22.4965 38.6233C22.0598 38.2201 21.8432 37.7281 21.8432 37.1411H21.6432C21.6432 37.7846 21.8836 38.3297 22.3609 38.7703L22.4965 38.6233ZM21.8432 37.1411C21.8432 36.5364 22.0641 36.0457 22.5074 35.661L22.3763 35.5099C21.888 35.9338 21.6432 36.4802 21.6432 37.1411H21.8432ZM22.5067 35.6616C22.9609 35.2747 23.5259 35.079 24.2085 35.079V34.879C23.4848 34.879 22.8721 35.0876 22.377 35.5093L22.5067 35.6616ZM24.2085 35.079C24.8998 35.079 25.4542 35.2789 25.881 35.6722L26.0165 35.5251C25.5467 35.0922 24.941 34.879 24.2085 34.879V35.079ZM25.8825 35.6735C26.3175 36.0584 26.5343 36.545 26.5343 37.1411H26.7343C26.7343 36.4892 26.494 35.9475 26.015 35.5237L25.8825 35.6735ZM26.5343 37.1411C26.5343 37.7551 26.3129 38.2549 25.8692 38.6483L26.0019 38.798C26.4899 38.3652 26.7343 37.8103 26.7343 37.1411H26.5343ZM25.8693 38.6482C25.4342 39.0331 24.8618 39.2296 24.1426 39.2296V39.4296C24.8999 39.4296 25.5228 39.2217 26.0018 38.798L25.8693 38.6482Z" fill="black"/>
<path fill-rule="evenodd" clip-rule="evenodd" d="M27.4925 19.8135C27.248 20.6608 27.1213 21.5565 27.1315 22.4815C27.1412 23.368 27.2744 24.2242 27.5144 25.034C27.7037 25.6725 27.9594 26.2821 28.2734 26.855C29.154 28.4614 30.4935 29.7787 32.1135 30.6327C32.6738 30.928 33.2677 31.168 33.8878 31.3453C34.7351 31.5875 35.6312 31.7127 36.5574 31.7025C37.4938 31.6922 38.3956 31.5461 39.2444 31.2829C39.8364 31.0993 40.4025 30.8586 40.9366 30.5673C42.5012 29.7138 43.7898 28.4252 44.6433 26.8606C44.9571 26.2854 45.2121 25.6729 45.4003 25.031C45.6374 24.2225 45.7688 23.3674 45.7785 22.4815C45.7887 21.5553 45.6634 20.6591 45.4212 19.8118C45.2447 19.1943 45.006 18.6028 44.7123 18.0445C43.8599 16.424 42.5439 15.0836 40.9388 14.2017C40.8883 14.2542 40.8606 14.285 40.8606 14.285L39.0164 13.4653C39.0164 13.4653 39.0184 13.4467 39.0212 13.4126C38.2376 13.1888 37.4116 13.0649 36.5574 13.0555C35.6323 13.0453 34.7366 13.1721 33.8892 13.4166C33.8918 13.4482 33.8936 13.4653 33.8936 13.4653L32.0494 14.285C32.0494 14.285 32.0255 14.2562 31.9817 14.2068C30.4277 15.064 29.14 16.3517 28.2828 17.9057C28.3322 17.9495 28.361 17.9734 28.361 17.9734L27.5413 19.8176C27.5413 19.8176 27.5241 19.8159 27.4925 19.8135ZM36.5574 17.9734C34.0677 17.9734 32.0494 19.9917 32.0494 22.4815C32.0494 24.9712 34.0677 26.9895 36.5574 26.9895C39.0472 26.9895 41.0655 24.9712 41.0655 22.4815C41.0655 19.9917 39.0472 17.9734 36.5574 17.9734Z" fill="#C4C4C4"/>
<path d="M48.0326 24.7355C49.4725 23.7225 49.4351 21.2916 48.0326 20.2274C47.2784 19.6552 45.7259 19.7808 45.4212 19.8118C45.6634 20.6591 45.7887 21.5553 45.7785 22.4815C45.7688 23.3674 45.6374 24.2225 45.4003 25.031C46.4283 24.9156 47.1865 25.3307 48.0326 24.7355Z" fill="#C4C4C4"/>
<path d="M43.1147 32.1123C44.8026 32.2926 46.3686 30.7266 46.1884 29.0387C46.0902 28.1199 44.9774 27.1367 44.6433 26.8606C43.7898 28.4252 42.5012 29.7138 40.9366 30.5673C41.2127 30.9014 42.1959 32.0142 43.1147 32.1123Z" fill="#C4C4C4"/>
<path d="M34.3034 33.9566C35.3676 35.3591 37.7183 35.3365 38.8115 33.9566C39.3802 33.2388 39.2969 31.8042 39.2444 31.2829C38.3956 31.5461 37.4938 31.6922 36.5574 31.7025C35.6312 31.7127 34.7351 31.5875 33.8878 31.3453C33.8568 31.65 33.7312 33.2024 34.3034 33.9566Z" fill="#C4C4C4"/>
<path d="M26.7217 29.0387C26.5414 30.7266 28.1005 32.2078 29.7954 32.1123C30.7207 32.0602 31.7457 31.0346 32.1135 30.6327C30.4935 29.7787 29.154 28.4614 28.2734 26.855C27.9478 27.1233 26.8205 28.1137 26.7217 29.0387Z" fill="#C4C4C4"/>
<path d="M25.0823 20.2274C23.6586 21.2629 23.62 23.7552 25.0823 24.7355C25.8772 25.2683 26.5646 24.9175 27.5144 25.034C27.2744 24.2242 27.1412 23.368 27.1315 22.4815C27.1213 21.5565 27.248 20.6608 27.4925 19.8135C27.2116 19.7922 25.7899 19.7128 25.0823 20.2274Z" fill="#C4C4C4"/>
<path d="M30.0003 12.8506C28.3182 12.622 26.6981 14.2422 26.9266 15.9243C27.0386 16.7484 27.9997 17.6546 28.2828 17.9057C29.14 16.3517 30.4277 15.064 31.9817 14.2068C31.7306 13.9237 30.8244 12.9626 30.0003 12.8506Z" fill="#C4C4C4"/>
<path d="M38.6066 11.0064C37.5949 9.66454 35.3151 9.66454 34.3034 11.0064C33.7765 11.7053 33.8658 13.1351 33.8892 13.4166C34.7366 13.1721 35.6323 13.0453 36.5574 13.0555C37.4116 13.0649 38.2376 13.1888 39.0212 13.4126C39.0451 13.1218 39.1311 11.702 38.6066 11.0064Z" fill="#C4C4C4"/>
<path d="M46.1884 15.9243C46.3686 14.2363 44.8068 12.7152 43.1147 12.8506C42.2315 12.9212 41.223 13.9061 40.9388 14.2017C42.5439 15.0836 43.8599 16.424 44.7123 18.0445C45.1087 17.7071 46.0962 16.7873 46.1884 15.9243Z" fill="#C4C4C4"/>
<path d="M44.5491 18.1783C44.5491 18.1783 44.6116 18.1302 44.7123 18.0445M45.3687 19.8176C45.3687 19.8176 45.3872 19.8153 45.4212 19.8118M45.4003 25.031C45.6374 24.2225 45.7688 23.3674 45.7785 22.4815C45.7887 21.5553 45.6634 20.6591 45.4212 19.8118M45.4003 25.031C46.4283 24.9156 47.1865 25.3307 48.0326 24.7355C49.4725 23.7225 49.4351 21.2916 48.0326 20.2274C47.2784 19.6552 45.7259 19.7808 45.4212 19.8118M45.4003 25.031C45.2121 25.6729 44.9571 26.2854 44.6433 26.8606M44.5491 26.7846C44.5491 26.7846 44.5838 26.8114 44.6433 26.8606M40.8606 30.473C40.8606 30.473 40.8874 30.5078 40.9366 30.5673M39.2213 31.0878C39.2213 31.0878 39.232 31.1599 39.2444 31.2829M33.8936 31.2927C33.8936 31.2927 33.8913 31.3112 33.8878 31.3453M32.2543 30.473C32.2543 30.473 32.2036 30.5341 32.1135 30.6327M28.361 26.7846C28.361 26.7846 28.3288 26.8094 28.2734 26.855M27.5144 25.034C27.2744 24.2242 27.1412 23.368 27.1315 22.4815C27.1213 21.5565 27.248 20.6608 27.4925 19.8135M27.5144 25.034C26.5646 24.9175 25.8772 25.2683 25.0823 24.7355C23.62 23.7552 23.6586 21.2629 25.0823 20.2274C25.7899 19.7128 27.2116 19.7922 27.4925 19.8135M27.5144 25.034C27.7037 25.6725 27.9594 26.2821 28.2734 26.855M27.4925 19.8135C27.5241 19.8159 27.5413 19.8176 27.5413 19.8176L28.361 17.9734C28.361 17.9734 28.3322 17.9495 28.2828 17.9057M27.4925 19.8135C27.6856 19.1442 27.9522 18.5052 28.2828 17.9057M28.2734 26.855C29.154 28.4614 30.4935 29.7787 32.1135 30.6327M28.2734 26.855C27.9478 27.1233 26.8205 28.1137 26.7217 29.0387C26.5414 30.7266 28.1005 32.2078 29.7954 32.1123C30.7207 32.0602 31.7457 31.0346 32.1135 30.6327M32.1135 30.6327C32.6738 30.928 33.2677 31.168 33.8878 31.3453M33.8878 31.3453C34.7351 31.5875 35.6312 31.7127 36.5574 31.7025C37.4938 31.6922 38.3956 31.5461 39.2444 31.2829M33.8878 31.3453C33.8568 31.65 33.7312 33.2024 34.3034 33.9566C35.3676 35.3591 37.7183 35.3365 38.8115 33.9566C39.3802 33.2388 39.2969 31.8042 39.2444 31.2829M39.2444 31.2829C39.8364 31.0993 40.4025 30.8586 40.9366 30.5673M40.9366 30.5673C42.5012 29.7138 43.7898 28.4252 44.6433 26.8606M40.9366 30.5673C41.2127 30.9014 42.1959 32.0142 43.1147 32.1123C44.8026 32.2926 46.3686 30.7266 46.1884 29.0387C46.0902 28.1199 44.9774 27.1367 44.6433 26.8606M45.4212 19.8118C45.2447 19.1943 45.006 18.6028 44.7123 18.0445M44.7123 18.0445C43.8599 16.424 42.5439 15.0836 40.9388 14.2017M44.7123 18.0445C45.1087 17.7071 46.0962 16.7873 46.1884 15.9243C46.3686 14.2363 44.8068 12.7152 43.1147 12.8506C42.2315 12.9212 41.223 13.9061 40.9388 14.2017M40.9388 14.2017C40.8883 14.2542 40.8606 14.285 40.8606 14.285L39.0164 13.4653C39.0164 13.4653 39.0184 13.4467 39.0212 13.4126M40.9388 14.2017C40.3371 13.8711 39.6949 13.605 39.0212 13.4126M39.0212 13.4126C38.2376 13.1888 37.4116 13.0649 36.5574 13.0555C35.6323 13.0453 34.7366 13.1721 33.8892 13.4166M39.0212 13.4126C39.0451 13.1218 39.1311 11.702 38.6066 11.0064C37.5949 9.66454 35.3151 9.66454 34.3034 11.0064C33.7765 11.7053 33.8658 13.1351 33.8892 13.4166M33.8892 13.4166C33.8918 13.4482 33.8936 13.4653 33.8936 13.4653L32.0494 14.285C32.0494 14.285 32.0255 14.2562 31.9817 14.2068M33.8892 13.4166C33.22 13.6097 32.5811 13.8762 31.9817 14.2068M31.9817 14.2068C30.4277 15.064 29.14 16.3517 28.2828 17.9057M31.9817 14.2068C31.7306 13.9237 30.8244 12.9626 30.0003 12.8506C28.3182 12.622 26.6981 14.2422 26.9266 15.9243C27.0386 16.7484 27.9997 17.6546 28.2828 17.9057M32.0494 22.4815C32.0494 19.9917 34.0677 17.9734 36.5574 17.9734C39.0472 17.9734 41.0655 19.9917 41.0655 22.4815C41.0655 24.9712 39.0472 26.9895 36.5574 26.9895C34.0677 26.9895 32.0494 24.9712 32.0494 22.4815Z" stroke="black" stroke-width="0.1"/>
</svg>
